<?xml version="1.0" standalone="no"?><!DOCTYPE svg PUBLIC "-//W3C//DTD SVG 1.1//EN" "http://www.w3.org/Graphics/SVG/1.1/DTD/svg11.dtd"><svg t="1583239021307" class="icon" viewBox="0 0 1024 1024" version="1.1" xmlns="http://www.w3.org/2000/svg" p-id="776" xmlns:xlink="http://www.w3.org/1999/xlink" width="200" height="200"><defs><style type="text/css"></style></defs><path d="M369.1 183.5H62.3v-76.8h306.8v76.8z m-286.8-20h266.8v-36.8H82.3v36.8z" fill="#ffffff" p-id="777"></path><path d="M324.8 126.8h-221V54.1h221v72.7z m-201-20h181V74.1h-181v32.7zM311.1 644.4H120.3V163.5h190.8v480.9z m-170.8-20h150.8V183.5H140.3v440.9z" fill="#ffffff" p-id="778"></path><path d="M253.8 756.6h-76.3V624.4h76.3v132.2z m-56.2-20h36.3v-92.2h-36.3v92.2z" fill="#ffffff" p-id="779"></path><path d="M283.6 884H147.8V736.6h135.8V884z m-115.8-20h95.8V756.6h-95.8V864z" fill="#ffffff" p-id="780"></path><path d="M313.3 936.5H118.1V864h195.1v72.5z m-175.2-20h155.1V884H138.1v32.5zM918.7 777.1H372.3V566.8h546.4v210.3z m-526.4-20h506.4V586.8H392.3v170.3z" fill="#ffffff" p-id="781"></path><path d="M852.3 586.5H436.7L467.1 394h354.8l30.4 192.5z m-392.2-20h368.7l-24-152.5H484.2l-24.1 152.5zM955 832.9H331v-75.5h624v75.5z m-604.1-20h584v-35.5h-584v35.5z" fill="#ffffff" p-id="782"></path><path d="M494.9 936H390.4V813h104.4v123z m-84.5-20h64.4v-83h-64.4v83zM900.5 936H796.1V813h104.4v123z m-84.4-20h64.4v-83h-64.4v83zM807.9 586.5H484.3l21-146.3h281.5l21.1 146.3z m-300.5-20h277.4l-15.3-106.3H522.7l-15.3 106.3z" fill="#ffffff" p-id="783"></path><path d="M733.2 722.4H556.9l-52.1-155.9h280.4l-52 155.9z m-161.9-20h147.4l38.7-115.9H532.6l38.7 115.9zM461.8 713.4c-24.3 0-44.1-19.8-44.1-44.1s19.8-44.1 44.1-44.1 44.1 19.8 44.1 44.1-19.8 44.1-44.1 44.1z m0-68.1c-13.3 0-24.1 10.8-24.1 24.1s10.8 24.1 24.1 24.1 24.1-10.8 24.1-24.1-10.8-24.1-24.1-24.1zM830.4 713.4c-24.3 0-44.1-19.8-44.1-44.1s19.8-44.1 44.1-44.1 44.1 19.8 44.1 44.1c-0.1 24.3-19.8 44.1-44.1 44.1z m0-68.1c-13.3 0-24.1 10.8-24.1 24.1s10.8 24.1 24.1 24.1 24.1-10.8 24.1-24.1-10.8-24.1-24.1-24.1zM416.1 555.4h-41.8v-64.7h86.6v20h-66.6v24.7h21.8zM918 555.4h-41.7v-20H898v-24.7h-66.5v-20H918zM880.9 414h-42.8v-20h22.8v-36.9H429.2V394h21v20h-41v-76.9h471.7z" fill="#ffffff" p-id="784"></path><path d="M506.1 305.9h20v41.2h-20zM765.8 305.9h20v41.2h-20zM478.994 865.88l70.942-51.041 11.68 16.234-70.942 51.041zM730.022 831.424l11.68-16.236 70.951 51.042-11.68 16.236zM214.8 311.2c-24.3 0-44.1-19.8-44.1-44.1s19.8-44.1 44.1-44.1 44.1 19.8 44.1 44.1-19.8 44.1-44.1 44.1z m0-68.2c-13.3 0-24.1 10.8-24.1 24.1s10.8 24.1 24.1 24.1 24.1-10.8 24.1-24.1S228 243 214.8 243zM214.8 438.9c-24.3 0-44.1-19.8-44.1-44.1s19.8-44.1 44.1-44.1 44.1 19.8 44.1 44.1-19.8 44.1-44.1 44.1z m0-68.1c-13.3 0-24.1 10.8-24.1 24.1s10.8 24.1 24.1 24.1 24.1-10.8 24.1-24.1-10.9-24.1-24.1-24.1zM214.8 566.6c-24.3 0-44.1-19.8-44.1-44.1s19.8-44.1 44.1-44.1 44.1 19.8 44.1 44.1c-0.1 24.3-19.8 44.1-44.1 44.1z m0-68.1c-13.3 0-24.1 10.8-24.1 24.1s10.8 24.1 24.1 24.1 24.1-10.8 24.1-24.1-10.9-24.1-24.1-24.1z" fill="#ffffff" p-id="785"></path></svg>