<?xml version="1.0" standalone="no"?><!DOCTYPE svg PUBLIC "-//W3C//DTD SVG 1.1//EN" "http://www.w3.org/Graphics/SVG/1.1/DTD/svg11.dtd"><svg t="1583230918445" class="icon" viewBox="0 0 1024 1024" version="1.1" xmlns="http://www.w3.org/2000/svg" p-id="7260" xmlns:xlink="http://www.w3.org/1999/xlink" width="200" height="200"><defs><style type="text/css"></style></defs><path d="M98.816 609.4848l516.3776 0c2.0992 0 3.7888-1.6896 3.7888-3.7376L618.9824 274.6368c0-2.0992-1.6896-3.7632-3.7888-3.7632L98.816 270.8736c-2.0736 0-3.7632 1.664-3.7632 3.7632l0 331.1104C95.0528 607.7696 96.7424 609.4848 98.816 609.4848" p-id="7261"></path><path d="M793.0624 642.816c-44.1088 0-79.9488 35.8912-79.9488 79.9744 0 44.1344 35.84 79.9744 79.9488 79.9744s80-35.84 80-79.9744C873.0624 678.7328 837.1456 642.816 793.0624 642.816M793.0624 761.0624c-21.0432 0-38.1952-17.152-38.1952-38.2464 0-21.0688 17.152-38.2464 38.1952-38.2464 21.0944 0 38.2464 17.1776 38.2464 38.2464C831.3088 743.9104 814.1568 761.0624 793.0624 761.0624" p-id="7262"></path><path d="M261.888 645.3504c-44.1088 0-79.9744 35.84-79.9744 79.9744 0 44.0832 35.8656 79.9744 79.9744 79.9744s79.9488-35.8912 79.9488-79.9744C341.8624 681.1904 305.9968 645.3504 261.888 645.3504M261.888 763.5712c-21.12 0-38.272-17.1776-38.272-38.2464s17.152-38.2464 38.272-38.2464c21.0688 0 38.2208 17.1776 38.2208 38.2464S282.9824 763.5712 261.888 763.5712" p-id="7263"></path><path d="M214.4256 637.1584c1.4336-0.896 2.1248-2.6368 1.664-4.224-0.4864-1.6384-1.9456-2.7648-3.6352-2.7648L92.288 630.1696c-2.0736 0-3.7376 1.6896-3.7376 3.7632l0 49.3824c0 2.0736 1.664 3.7632 3.7376 3.7632l78.6688 0c1.536 0 2.9184-0.9216 3.5072-2.3808C182.1952 665.1136 196.3776 648.192 214.4256 637.1584" p-id="7264"></path><path d="M941.696 630.144l-97.5616 0c-1.6896 0-3.2 1.1264-3.6608 2.7648-0.4608 1.5872 0.256 3.328 1.6384 4.224 29.3376 17.9968 46.848 49.152 46.848 83.3024 0 3.584-0.256 7.424-0.7424 11.8016-0.1536 1.0496 0.2048 2.1248 0.896 2.944 0.6912 0.7936 1.7408 1.2544 2.7904 1.2544l49.7408 0c2.048 0 3.7376-1.664 3.7376-3.7632l0-98.7392C945.4592 631.8592 943.744 630.144 941.696 630.144" p-id="7265"></path><path d="M741.9904 640.4608c2.304-1.28 3.7888-3.7376 3.7888-6.528 0-4.1728-3.4048-7.5264-7.552-7.5264l0 0L318.3616 626.4064c-3.3792 0-6.3232 2.2528-7.2192 5.4784-0.896 3.2512 0.4608 6.7072 3.3024 8.448 28.2112 17.3568 45.056 47.2832 45.056 80.128 0 3.4304-0.2304 7.1168-0.7424 11.3152-0.2816 2.176 0.4096 4.3008 1.8176 5.888 1.4592 1.6128 3.5072 2.56 5.6576 2.56l324.1984 0c2.1504 0 4.1984-0.9216 5.6576-2.56 1.408-1.6128 2.048-3.7376 1.792-5.888-0.512-4.1984-0.6912-7.9104-0.6912-11.3152C697.1392 687.6928 713.9072 657.792 741.9904 640.4608" p-id="7266"></path><path d="M820.352 330.112l-138.2912 0c-25.1392 0-41.344 12.5696-41.344 32l0 243.6096c0 2.0736 1.6384 3.7632 3.7376 3.7632l297.2416 0c2.048 0 3.7376-1.6896 3.7376-3.7632l0-71.4752C945.4592 494.3616 877.1072 330.112 820.352 330.112M701.7472 523.8784l0-135.4752 104.1408 0c30.6944 0 72.5504 84.5568 74.5472 135.4752L701.7472 523.8784z" p-id="7267"></path></svg>