<?xml version="1.0" standalone="no"?><!DOCTYPE svg PUBLIC "-//W3C//DTD SVG 1.1//EN" "http://www.w3.org/Graphics/SVG/1.1/DTD/svg11.dtd"><svg t="1585126693238" class="icon" viewBox="0 0 1024 1024" version="1.1" xmlns="http://www.w3.org/2000/svg" p-id="5999" xmlns:xlink="http://www.w3.org/1999/xlink" width="200" height="200"><defs><style type="text/css"></style></defs><path d="M893.456828 709.055005" p-id="6000"></path><path d="M491.889987 337.939709" p-id="6001"></path><path d="M568.154951 338.993714" p-id="6002"></path><path d="M898.292973 488.884536c0-104.424304-19.321044-198.762903-51.78441-271.478018-33.577746-78.018911-81.071434-132.869147-135.426389-148.22181-27.01119-7.624654-110.790292-22.585391-182.115758-22.585391-70.819952 0-137.992841 8.44023-179.686429 22.575158-109.799732 37.236066-192.59646 219.476667-192.59646 423.919942 0 213.523071 65.735144 358.599238 190.093453 419.565774 41.786709 20.48045 104.796788 31.314193 182.199669 31.314193 88.370677 0 168.029948-25.691125 183.123714-30.839379 107.860567-36.84414 186.054463-213.502605 186.054463-420.040588 0-0.044002 0-0.088004 0-0.132006C898.154827 491.597321 898.292973 490.25372 898.292973 488.884536zM674.600285 866.509083c-98.388844 0-181.518147-172.933631-181.518147-377.624547 0-204.701149 83.129302-377.63478 181.518147-377.63478 70.495564 0 133.143393 88.792279 163.007561 214.424604 11.797697 51.238988 18.453281 108.238167 18.458397 167.352519C854.949816 695.89631 772.321934 866.509083 674.600285 866.509083zM365.370455 874.710882c-108.871593-53.372581-166.423357-185.335079-166.423357-381.617487 0-205.506491 83.334987-356.577185 163.916257-383.88718 36.998659-12.55699 100.648304-20.346397 166.113295-20.346397 22.834055 0 46.918589 1.658779 69.739341 4.076852-87.045495 57.126069-147.895375 210.717166-147.895375 395.947867 0 196.282409 68.339458 357.011066 163.768901 405.085992-25.63382 4.414543-55.07434 7.742335-85.612866 7.742335C439.285908 901.712863 390.504902 887.030465 365.370455 874.710882z" p-id="6003"></path><path d="M683.256432 290.858414c-60.233849 0-105.652272 86.296435-105.652272 200.73993S623.022583 692.338275 683.256432 692.338275 788.908704 606.04184 788.908704 491.598344 743.490282 290.858414 683.256432 290.858414zM683.256432 650.075729c-26.474978 0-63.391772-60.286038-63.391772-158.478408s36.916794-158.478408 63.391772-158.478408 63.391772 60.286038 63.391772 158.478408S709.73141 650.075729 683.256432 650.075729z" p-id="6004"></path></svg>